<svg xmlns="http://www.w3.org/2000/svg" width="32" height="32" viewBox="0 0 24 24" fill="none" stroke="currentColor" stroke-width="2" stroke-linecap="round" stroke-linejoin="round">
  <path d="M3 7v10a2 2 0 0 0 2 2h14a2 2 0 0 0 2-2V9a2 2 0 0 0-2-2H5a2 2 0 0 0-2 2z"/>
  <path d="M8 21v-4a2 2 0 0 1 2-2h4a2 2 0 0 1 2 2v4"/>
  <path d="M8 7V5a2 2 0 0 1 2-2h4a2 2 0 0 1 2-2v2"/>
  <circle cx="12" cy="13" r="2"/>
  <defs>
    <linearGradient id="store-gradient" x1="0%" y1="0%" x2="100%" y2="100%">
      <stop offset="0%" style="stop-color:#9333ea;stop-opacity:1" />
      <stop offset="100%" style="stop-color:#db2777;stop-opacity:1" />
    </linearGradient>
  </defs>
  <style>
    path, circle { stroke: url(#store-gradient); }
  </style>
</svg>